<svg width="40" height="40" viewBox="0 0 40 40" fill="none" xmlns="http://www.w3.org/2000/svg">
<rect x="0.0683594" width="39.9316" height="39.9316" rx="8" fill="#EDEDED"/>
<g clip-path="url(#clip0)">
<path d="M32.3648 18.042L21.7778 18.0415C21.3103 18.0415 20.9314 18.4204 20.9314 18.8879V22.27C20.9314 22.7374 21.3103 23.1164 21.7778 23.1164H27.7397C27.0869 24.8106 25.8684 26.2295 24.3138 27.1311L26.856 31.5318C30.9339 29.1733 33.3449 25.0352 33.3449 20.4029C33.3449 19.7433 33.2963 19.2718 33.199 18.7408C33.1251 18.3375 32.7749 18.042 32.3648 18.042Z" fill="#167EE6"/>
<path d="M20.367 28.1982C17.4493 28.1982 14.9022 26.6041 13.5342 24.2451L9.13364 26.7816C11.3731 30.6628 15.5682 33.2765 20.367 33.2765C22.7211 33.2765 24.9424 32.6427 26.8559 31.5381V31.532L24.3137 27.1313C23.1509 27.8057 21.8052 28.1982 20.367 28.1982Z" fill="#12B347"/>
<path d="M26.8558 31.5379V31.5319L24.3137 27.1311C23.1508 27.8055 21.8053 28.1981 20.3669 28.1981V33.2763C22.721 33.2763 24.9424 32.6425 26.8558 31.5379Z" fill="#0F993E"/>
<path d="M12.4674 20.2985C12.4674 18.8604 12.8599 17.5149 13.5342 16.3521L9.13361 13.8157C8.02294 15.7232 7.38916 17.9384 7.38916 20.2985C7.38916 22.6587 8.02294 24.8739 9.13361 26.7814L13.5342 24.2449C12.8599 23.0822 12.4674 21.7367 12.4674 20.2985Z" fill="#FFD500"/>
<path d="M20.367 12.3991C22.2696 12.3991 24.0172 13.0751 25.3823 14.1997C25.719 14.4771 26.2085 14.4571 26.517 14.1486L28.9133 11.7523C29.2633 11.4023 29.2384 10.8294 28.8645 10.505C26.5774 8.52089 23.6016 7.3208 20.367 7.3208C15.5682 7.3208 11.3731 9.93446 9.13364 13.8157L13.5342 16.3522C14.9022 13.9932 17.4493 12.3991 20.367 12.3991Z" fill="#FF4B26"/>
<path d="M25.3823 14.1997C25.719 14.4771 26.2085 14.4571 26.5169 14.1486L28.9133 11.7523C29.2632 11.4023 29.2383 10.8294 28.8645 10.505C26.5774 8.52084 23.6016 7.3208 20.3669 7.3208V12.3991C22.2695 12.3991 24.0172 13.0751 25.3823 14.1997Z" fill="#D93F21"/>
</g>
<defs>
<clipPath id="clip0">
<rect width="25.9556" height="25.9556" fill="white" transform="translate(7.38916 7.3208)"/>
</clipPath>
</defs>
</svg>
