<svg width="24" height="27" viewBox="0 0 24 27" fill="none" xmlns="http://www.w3.org/2000/svg">
<path d="M19.5 9H22C22.3315 9 22.6495 9.1317 22.8839 9.36612C23.1183 9.60054 23.25 9.91848 23.25 10.25V25.25C23.25 25.5815 23.1183 25.8995 22.8839 26.1339C22.6495 26.3683 22.3315 26.5 22 26.5H2C1.66848 26.5 1.35054 26.3683 1.11612 26.1339C0.881696 25.8995 0.75 25.5815 0.75 25.25V10.25C0.75 9.91848 0.881696 9.60054 1.11612 9.36612C1.35054 9.1317 1.66848 9 2 9H4.5V7.75C4.5 5.76088 5.29018 3.85322 6.6967 2.4467C8.10322 1.04018 10.0109 0.25 12 0.25C13.9891 0.25 15.8968 1.04018 17.3033 2.4467C18.7098 3.85322 19.5 5.76088 19.5 7.75V9ZM17 9V7.75C17 6.42392 16.4732 5.15215 15.5355 4.21447C14.5979 3.27678 13.3261 2.75 12 2.75C10.6739 2.75 9.40215 3.27678 8.46447 4.21447C7.52678 5.15215 7 6.42392 7 7.75V9H17ZM10.75 16.5V19H13.25V16.5H10.75ZM5.75 16.5V19H8.25V16.5H5.75ZM15.75 16.5V19H18.25V16.5H15.75Z" fill="#A1BDF9"/>
</svg>
