<svg width="40" height="40" viewBox="0 0 40 40" fill="none" xmlns="http://www.w3.org/2000/svg">
<rect width="40" height="40" rx="8" fill="#EDEDED"/>
<path d="M29.7551 25.7108L24.8433 21.2448C24.6111 21.0338 24.306 20.9212 23.9924 20.9309C23.6787 20.9406 23.3812 21.0718 23.1625 21.2968L20.2709 24.2705C19.5749 24.1375 18.1757 23.7013 16.7353 22.2646C15.295 20.8231 14.8588 19.4202 14.7295 18.729L17.7008 15.8363C17.926 15.6177 18.0574 15.3201 18.0671 15.0064C18.0768 14.6927 17.9641 14.3876 17.7528 14.1555L13.288 9.24484C13.0766 9.01206 12.7827 8.87086 12.4689 8.85124C12.1551 8.83161 11.8459 8.93509 11.6072 9.13971L8.98509 11.3884C8.77618 11.5981 8.65149 11.8771 8.63467 12.1726C8.61655 12.4747 8.27096 19.6305 13.8196 25.1815C18.6602 30.0209 24.7236 30.375 26.3935 30.375C26.6376 30.375 26.7875 30.3677 26.8273 30.3653C27.1228 30.3488 27.4017 30.2235 27.6103 30.0137L29.8578 27.3904C30.0633 27.1524 30.1675 26.8435 30.1483 26.5297C30.1291 26.2159 29.988 25.922 29.7551 25.7108Z" fill="#686868"/>
</svg>
