<svg width="26" height="26" viewBox="0 0 26 26" fill="none" xmlns="http://www.w3.org/2000/svg">
<path d="M13 0.5C6.22375 0.5 0.5 6.22375 0.5 13C0.5 19.7763 6.22375 25.5 13 25.5C19.7763 25.5 25.5 19.7763 25.5 13C25.5 6.22375 19.7763 0.5 13 0.5ZM13 6.75C15.1587 6.75 16.75 8.34 16.75 10.5C16.75 12.66 15.1587 14.25 13 14.25C10.8425 14.25 9.25 12.66 9.25 10.5C9.25 8.34 10.8425 6.75 13 6.75ZM6.6175 18.965C7.73875 17.315 9.60875 16.215 11.75 16.215H14.25C16.3925 16.215 18.2613 17.315 19.3825 18.965C17.785 20.675 15.5188 21.75 13 21.75C10.4812 21.75 8.215 20.675 6.6175 18.965Z" fill="#A1BDF9"/>
</svg>
